<svg width="1024" height="1024" viewBox="0 0 1024 1024" fill="none" xmlns="http://www.w3.org/2000/svg">
<path d="M265.125 143.002L186.621 215.852L246.548 269.723L170.095 401.723L170.067 567.189L255.511 771.628L394.844 879.998L403.536 848.496L619.464 848.497L628.156 880L767.489 771.628L852.933 567.189L852.905 401.725L776.452 269.724L836.379 215.852L757.875 143.002L691.034 190.816L680.744 324.775L823.444 471.572L683.39 557.991L722.997 764.624L622.641 832.097H400.359L300.003 764.624L339.61 557.991L199.556 471.571L342.256 324.773L331.966 190.816L265.125 143.002ZM511.456 168.005L455.312 175.145L482.355 342.666H540.645L567.688 175.145L511.544 168.005L511.5 168.01L511.456 168.005ZM316.124 409.371L347.762 422.71L351.228 451.487L422.852 458.773C449.24 442.871 480.345 435.386 511.5 435.634V435.636C542.655 435.387 573.76 442.871 600.147 458.773L671.772 451.489L675.238 422.712L706.876 409.371C574.132 419.629 445.535 419.372 316.124 409.371ZM510.174 463.738C485.153 463.828 460.574 467.042 437.512 473.117L427.221 541.374L449.345 541.88L453.994 525.659H461.188L469.428 554.76C484.631 560.898 498.041 564.042 511.5 564.061C524.959 564.042 538.368 560.898 553.572 554.76L561.812 525.659H569.006L573.655 541.88L595.779 541.374L585.488 473.117C562.426 467.042 537.847 463.828 512.826 463.738C511.873 463.734 511.223 463.733 510.174 463.738ZM421.255 571.646C402.697 639.687 392.398 711.872 380.411 783.19L421.255 754.831L459.499 674.963L470.927 757.149L491.517 727.785L507.628 754.831H515.371L531.483 727.787L552.073 757.151L563.501 674.965L601.745 754.831L642.589 783.192C630.602 711.874 620.303 639.689 601.745 571.647L563.77 653.111L552.073 571.647L531.764 598.466L515.371 572.425L507.628 572.423L491.236 598.464L470.927 571.646L459.23 653.109L421.255 571.646Z" fill="black" style="fill:black;fill-opacity:1;"/>
</svg>
