<svg width="1024" height="1024" viewBox="0 0 1024 1024" fill="none" xmlns="http://www.w3.org/2000/svg">
<path d="M752 934C852.527 934 934 852.527 934 752C934 651.473 852.527 570 752 570C651.473 570 570 651.473 570 752C570 852.527 651.473 934 752 934ZM788.045 801.126L685.456 840.583C671.664 845.915 658.085 832.336 663.417 818.544L702.874 715.955C705.22 709.912 709.912 705.22 715.955 702.874L818.544 663.417C832.336 658.085 845.915 671.664 840.583 685.456L801.126 788.045C798.851 794.088 794.088 798.78 788.045 801.126ZM774.75 752C774.75 739.416 764.584 729.25 752 729.25C739.416 729.25 729.25 739.416 729.25 752C729.25 764.584 739.416 774.75 752 774.75C764.584 774.75 774.75 764.584 774.75 752Z" fill="#F7CE46" style="fill:#F7CE46;fill:color(display-p3 0.9686 0.8078 0.2745);fill-opacity:1;"/>
</svg>
