<svg xmlns="http://www.w3.org/2000/svg" xmlns:svg="http://www.w3.org/2000/svg" id="svg1" width="674.001" height="722.223" version="1.1" viewBox="0 0 178.33 191.088" xml:space="preserve"><g id="layer1" transform="translate(-13.67081,-28.813123)"><path style="fill:#000" id="path1" d="m 72.40831,219.65121 c 0,-0.13755 -0.46052,-0.58404 -1.02338,-0.99219 -0.56286,-0.40816 -2.14044,-1.60448 -3.50573,-2.6585 -1.36529,-1.05402 -3.20862,-2.48277 -4.09628,-3.175 -0.88766,-0.69223 -3.56657,-2.77868 -5.95313,-4.63655 -2.38655,-1.85787 -5.81789,-4.53678 -7.6252,-5.95313 -1.8073,-1.41634 -4.14197,-3.23002 -5.18816,-4.03038 -1.04619,-0.80036 -3.46421,-2.67898 -5.3734,-4.17469 l -3.47124,-2.71948 -1.0843,-3.49823 c -0.59636,-1.92402 -1.35664,-4.39119 -1.68951,-5.4826 -0.33286,-1.09141 -0.86964,-2.87734 -1.19285,-3.96875 -0.32321,-1.09141 -0.74655,-2.46063 -0.94075,-3.04271 -0.19421,-0.58208 -0.77343,-2.42755 -1.28717,-4.10104 -0.51373,-1.67349 -1.90515,-6.19786 -3.09204,-10.05417 -1.18689,-3.8563 -2.56131,-8.36755 -3.05425,-10.02499 -0.49295,-1.65745 -0.998831,-3.14573 -1.124171,-3.30729 -0.12535,-0.16157 -1.68068,-2.11257 -3.45629,-4.33556 l -3.22839,-4.04179 -0.23451,-1.38216 c -0.12898,-0.76019 -0.4103,-2.3942 -0.62516,-3.63112 -0.21486,-1.23693 -0.51601,-3.32052 -0.66922,-4.63021 -0.15321,-1.30969 -0.400919,-3.46088 -0.550469,-4.78042 -0.14955,-1.31954 -0.2719,-6.25366 -0.2719,-10.96471 0,-4.71104 0.12316,-9.94173 0.27369,-11.62374 0.15054,-1.68202 0.388449,-3.853762 0.528689,-4.826092 l 0.255,-1.76788 2.11815,-2.86233 c 1.16498,-1.57428 3.04043,-4.09475 4.16766,-5.60104 1.12724,-1.506278 2.372391,-3.173158 2.767011,-3.704168 0.39462,-0.531 0.8844,-1.26312 1.0884,-1.62692 0.20399,-0.36381 1.06441,-2.71234 1.91202,-5.21896 l 1.54112,-4.557503 -1.40501,-3.247708 c -0.77276,-1.786239 -2.76756,-6.343333 -4.432891,-10.126874 -1.66533,-3.783542 -3.25815,-7.363242 -3.53961,-7.95489 -0.28145,-0.591648 -0.51173,-1.228542 -0.51173,-1.415322 0,-0.186779 1.10133,-1.374077 2.44739,-2.638439 1.34607,-1.264362 3.161771,-2.946545 4.034901,-3.738184 0.87312,-0.791639 2.54,-2.349567 3.70417,-3.462062 1.16416,-1.112495 2.89057,-2.716204 3.83645,-3.563797 0.94589,-0.847593 2.66587,-2.440323 3.82218,-3.539401 1.15631,-1.099077 2.52094,-2.398549 3.03252,-2.887715 l 0.93013,-0.889392 0.32935,0.227934 c 0.18114,0.125364 4.18889,2.991738 8.90611,6.36972 l 8.57676,6.141785 1.55512,-0.245522 c 0.85532,-0.135037 2.62669,-0.39613 3.93638,-0.580207 1.30968,-0.184076 2.55984,-0.314546 2.77812,-0.289931 0.21828,0.02461 0.89997,-0.06693 1.51486,-0.203432 0.6149,-0.136502 1.86505,-0.313446 2.77813,-0.393209 0.91307,-0.07976 1.83873,-0.195931 2.05701,-0.258152 0.21828,-0.06222 1.46844,-0.234948 2.77813,-0.383836 1.30968,-0.148888 2.79796,-0.323321 3.30729,-0.38763 0.50932,-0.06431 2.09602,-0.244732 3.52601,-0.400941 1.42998,-0.15621 3.09685,-0.39431 3.70416,-0.529113 0.60731,-0.134802 1.2828,-0.223731 1.50108,-0.197618 0.21828,0.02611 1.37914,-0.100179 2.57968,-0.280647 1.200553,-0.180469 3.135323,-0.447187 4.299483,-0.592708 1.16417,-0.145521 3.09894,-0.407392 4.29949,-0.581936 1.20054,-0.174544 3.075777,-0.317353 4.167177,-0.317353 1.09141,0 2.96664,0.142809 4.16719,0.317353 1.20055,0.174544 3.13531,0.436415 4.29948,0.581936 1.16417,0.145521 3.09893,0.412239 4.29948,0.592708 1.20055,0.180468 2.36141,0.306759 2.57969,0.280647 0.21828,-0.02611 0.90607,0.06557 1.52841,0.203746 0.62235,0.138173 2.2297,0.367893 3.57188,0.51049 1.34218,0.142597 2.85705,0.315372 3.36637,0.383945 0.50933,0.06857 1.93808,0.24496 3.175,0.391972 1.23693,0.147011 3.32052,0.392849 4.63021,0.546306 1.30969,0.153457 2.55985,0.327877 2.77813,0.3876 0.21828,0.05972 1.15846,0.179432 2.0893,0.266021 0.93083,0.08659 1.77184,0.206517 1.8689,0.266506 0.0971,0.05999 1.35954,0.234225 2.80549,0.387189 1.44596,0.152965 2.87573,0.3466 3.17728,0.430299 l 0.54826,0.152181 1.90154,-1.407617 c 1.04585,-0.77419 2.50624,-1.824336 3.24531,-2.333659 0.73908,-0.509323 1.48214,-1.047787 1.65124,-1.196587 0.16911,-0.148799 2.5457,-1.875206 5.28132,-3.836458 2.73562,-1.961253 5.12145,-3.668484 5.30186,-3.793848 l 0.328,-0.227934 0.92068,0.889392 c 0.50637,0.489166 2.46632,2.328432 4.35543,4.087257 1.88912,1.758825 4.20867,3.885922 5.15455,4.726881 0.94589,0.84096 1.95792,1.792907 2.24896,2.115439 0.29104,0.322532 1.3054,1.291061 2.25412,2.152286 0.94873,0.861225 2.88349,2.634492 4.29948,3.940593 1.41599,1.306101 2.57453,2.544769 2.57453,2.752595 0,0.207826 -0.28531,0.984666 -0.63402,1.726312 -0.34871,0.741646 -0.95635,2.122353 -1.35032,3.068238 -0.39397,0.945886 -0.94796,2.232134 -1.23109,2.85833 -0.28313,0.626197 -1.87814,4.229674 -3.54447,8.007727 -1.66633,3.778053 -3.02969,7.003934 -3.02969,7.168623 0,0.164689 0.49102,1.740431 1.09115,3.501648 0.60013,1.761216 1.38817,3.961246 1.75119,4.888956 0.38184,0.9758 1.5479,2.87164 2.76649,4.49792 1.15855,1.546138 2.32814,3.108838 2.59908,3.472638 0.27095,0.3638 1.23142,1.67349 2.13439,2.91042 0.90296,1.23692 1.97856,2.68488 2.39022,3.21769 l 0.74847,0.96873 0.25944,1.80939 c 0.14269,0.99517 0.38386,3.119082 0.53593,4.719812 0.15207,1.60073 0.27632,6.83142 0.27611,11.62375 -2.1e-4,4.79233 -0.1199,9.79296 -0.26597,11.1125 -0.14607,1.31954 -0.39353,3.47073 -0.54991,4.78042 -0.15638,1.30969 -0.46037,3.39328 -0.67554,4.63021 -0.21517,1.23692 -0.49741,2.87506 -0.62721,3.6403 l -0.236,1.39135 -3.42202,4.26388 -3.42201,4.26388 -0.71852,2.41456 c -0.39519,1.32801 -1.11277,3.66472 -1.59462,5.19269 -0.48185,1.52797 -1.309,4.20688 -1.83813,5.95313 -0.52912,1.74625 -1.2644,4.18703 -1.63396,5.42396 -0.36955,1.23692 -1.00995,3.32052 -1.4231,4.6302 -0.41314,1.30969 -1.18572,3.81 -1.71684,5.55625 -0.53111,1.74625 -1.27366,4.18704 -1.6501,5.42396 -0.37645,1.23693 -1.08195,3.49912 -1.56779,5.02709 -0.48583,1.52797 -0.88341,2.91985 -0.8835,3.09307 -9e-5,0.17323 -0.99928,1.12573 -2.22042,2.11667 -1.22114,0.99094 -3.08229,2.45656 -4.13587,3.25692 -1.05359,0.80037 -3.89424,3.00316 -6.31256,4.89509 -2.41832,1.89194 -4.70759,3.67787 -5.08728,3.96875 -0.37968,0.29088 -1.384,1.05493 -2.23181,1.69789 -0.84781,0.64297 -1.72778,1.32194 -1.95549,1.50883 -0.22771,0.1869 -1.44443,1.14912 -2.70382,2.13827 -1.25939,0.98916 -3.44923,2.69143 -4.86632,3.78284 -1.41708,1.09141 -3.54183,2.75297 -4.72166,3.69237 -1.17983,0.93939 -2.18483,1.80259 -2.23334,1.91823 -0.0485,0.11563 -13.77046,0.21023 -30.49323,0.21023 H 72.40831 Z m 1.12693,-3.33903 c 0.12636,-0.42708 0.45218,-1.60995 0.72405,-2.6286 0.27186,-1.01864 0.62653,-2.29669 0.78815,-2.8401 l 0.29386,-0.98802 7.3309,-0.0703 7.3309,-0.0703 v -1.85208 -1.85208 l -7.71933,-0.0701 -7.71934,-0.0701 -4.84837,-3.24382 c -2.66661,-1.7841 -8.38812,-5.62208 -12.71448,-8.52885 -4.32636,-2.90676 -7.86847,-5.36221 -7.87136,-5.45655 -0.003,-0.0943 1.07325,-1.55444 2.3914,-3.24467 l 2.39665,-3.07315 0.37215,-1.42879 c 0.20468,-0.78583 0.42953,-1.73789 0.49965,-2.1157 0.0701,-0.3778 0.25927,-1.39898 0.42032,-2.26929 0.16105,-0.87031 0.35161,-1.91096 0.42347,-2.31255 0.0719,-0.40159 0.24943,-1.17939 0.3946,-1.72845 0.14517,-0.54907 0.20224,-1.09814 0.12682,-1.22017 -0.0754,-0.12204 -0.25889,-1.22062 -0.40772,-2.4413 -0.14882,-1.22067 -0.38107,-3.04335 -0.51611,-4.05039 l -0.24552,-1.83099 0.51094,-3.46068 c 0.28102,-1.90337 0.69156,-4.51906 0.91232,-5.81264 0.22076,-1.29358 0.45153,-2.72233 0.51282,-3.175 0.0613,-0.45267 0.24555,-1.71601 0.40947,-2.80742 0.16392,-1.0914 0.40005,-2.63922 0.52474,-3.43958 0.12469,-0.80036 0.35481,-2.28865 0.51137,-3.30729 0.15655,-1.01865 0.37823,-2.2688 0.49261,-2.77813 0.11438,-0.50932 0.19021,-1.18245 0.16851,-1.49584 -0.0217,-0.31338 -0.29525,-0.98367 -0.60789,-1.48953 -0.31263,-0.50586 -1.43077,-1.73863 -2.48474,-2.73949 -1.05397,-1.00087 -3.22079,-2.69655 -4.81515,-3.7682 -1.59436,-1.07164 -4.78316,-2.95768 -7.08623,-4.1912 -2.30308,-1.23353 -7.13032,-3.63847 -10.72721,-5.34432 -3.5969,-1.70585 -7.22488,-3.39079 -8.0622,-3.7443 -0.83732,-0.35351 -1.49216,-0.78824 -1.45521,-0.96608 0.0369,-0.17784 1.86162,-2.14237 4.05481,-4.36563 2.1932,-2.22325 5.93453,-6.06634 8.31407,-8.5402 2.37955,-2.473852 8.21974,-8.486512 12.97821,-13.361472 4.75848,-4.874938 9.08678,-9.357698 9.61844,-9.961668 l 0.96667,-1.09814 -0.28982,-4.061239 c -0.1594,-2.233682 -0.33733,-4.894677 -0.3954,-5.913323 -0.0581,-1.018646 -0.2215,-3.042708 -0.36319,-4.497917 -0.14168,-1.455208 -0.38978,-4.610364 -0.55132,-7.011458 -0.16155,-2.401094 -0.40662,-5.45748 -0.5446,-6.79197 -0.13799,-1.33449 -0.25089,-3.010377 -0.25089,-3.724192 v -1.297847 l -0.59532,-0.539947 c -0.32742,-0.296971 -3.75046,-2.779497 -7.60677,-5.516726 -3.8563,-2.737228 -7.3867,-5.258643 -7.84533,-5.603143 l -0.83387,-0.626365 -2.60571,2.476703 c -1.43314,1.362187 -3.85587,3.626989 -5.38384,5.032893 -1.52796,1.405905 -4.44859,4.076822 -6.49026,5.935372 -2.04168,1.858549 -3.995971,3.719246 -4.342881,4.134882 l -0.63073,0.755702 0.90329,0.831798 c 0.49681,0.457489 1.796261,1.601051 2.887671,2.541249 1.0914,0.940198 2.2225,1.9679 2.51354,2.283782 0.29104,0.315883 1.5412,1.460626 2.77812,2.543874 1.23693,1.083248 2.66568,2.357802 3.175,2.832344 0.50933,0.474541 1.313,1.164286 1.78594,1.532766 0.47294,0.36848 0.8599,0.805654 0.8599,0.971498 0,0.165843 -0.45875,1.014915 -1.01944,1.886826 -0.56069,0.871911 -1.72023,2.775918 -2.57675,4.231126 -0.85652,1.455208 -1.69852,2.94349 -1.87111,3.307292 -0.17259,0.363802 -0.6181,1.554427 -0.99002,2.645833 -0.37193,1.091407 -1.13324,3.269987 -1.69181,4.841287 l -1.01559,2.85691 -2.48075,3.3608 c -1.364421,1.848448 -3.651321,4.942228 -5.082001,6.875068 l -2.60123,3.51427 -0.24607,2.57115 c -0.13534,1.414132 -0.36931,3.642712 -0.51994,4.952402 -0.15063,1.30969 -0.27387,5.47687 -0.27387,9.26041 0,3.78355 0.12324,7.95073 0.27387,9.26042 0.15063,1.30969 0.39101,3.51235 0.53418,4.89479 0.14317,1.38245 0.3134,2.93026 0.37827,3.43959 0.0649,0.50932 0.19607,1.34276 0.29153,1.85208 0.0955,0.50932 0.20918,1.2237 0.2527,1.5875 0.0435,0.3638 0.22664,1.37583 0.40693,2.24896 l 0.32779,1.5875 3.29319,4.10104 3.293191,4.10104 1.75732,1.32292 c 0.96653,0.7276 3.7212,2.74801 6.12149,4.48978 2.40029,1.74178 4.48322,3.25942 4.62874,3.37254 0.14552,0.11311 0.97896,0.72621 1.85209,1.36244 0.87312,0.63623 3.4925,2.55316 5.82083,4.25986 2.32833,1.70669 4.26557,3.18825 4.30496,3.29235 0.0394,0.1041 -0.27558,1.0153 -0.69995,2.0249 -0.42437,1.0096 -2.34504,5.46703 -4.26816,9.90542 -1.92311,4.43839 -4.0172,9.31197 -4.65352,10.8302 -0.63633,1.51822 -1.12914,2.77155 -1.09515,2.78517 0.034,0.0136 0.95479,0.7388 2.04619,1.61153 1.09141,0.87272 2.46063,1.9368 3.04271,2.36461 0.58209,0.42782 1.19476,0.90123 1.36151,1.05202 0.16674,0.1508 1.65502,1.31414 3.30729,2.5852 1.65227,1.27107 5.38537,4.16619 8.29579,6.43362 2.91041,2.26743 6.24416,4.85095 7.40833,5.74115 1.16417,0.8902 2.53338,1.9551 3.04271,2.36644 0.50932,0.41133 2.05713,1.63529 3.43958,2.7199 1.38245,1.08461 2.62611,1.93886 2.7637,1.89833 0.13759,-0.0405 0.35354,-0.42312 0.4799,-0.8502 z m 61.07492,-0.44726 c 0.9595,-0.76317 2.13698,-1.68524 2.61661,-2.04904 0.47964,-0.36381 1.54722,-1.19724 2.37242,-1.85209 0.82519,-0.65484 1.89906,-1.48828 2.38636,-1.85208 0.4873,-0.3638 1.56696,-1.19724 2.39925,-1.85208 0.8323,-0.65485 2.66706,-2.0836 4.07727,-3.175 1.4102,-1.09141 3.01183,-2.34157 3.55916,-2.77813 0.54734,-0.43656 1.39662,-1.0914 1.8873,-1.45521 0.49068,-0.3638 1.49579,-1.13771 2.23359,-1.71979 0.7378,-0.58208 2.11272,-1.65293 3.05538,-2.37965 0.94267,-0.72673 1.89253,-1.46569 2.11081,-1.64214 0.21828,-0.17645 1.29682,-1.01061 2.39674,-1.85368 1.09993,-0.84307 2.3752,-1.84868 2.83394,-2.23469 l 0.83406,-0.70182 -0.92415,-2.29185 c -0.50828,-1.26052 -1.0369,-2.49251 -1.17472,-2.73776 -0.13782,-0.24525 -0.79714,-1.75052 -1.46515,-3.34505 -0.66801,-1.59453 -1.43155,-3.38046 -1.69675,-3.96875 -0.2652,-0.58828 -1.22131,-2.79601 -2.12469,-4.90607 -0.90338,-2.11005 -1.79175,-4.19364 -1.97416,-4.63021 -0.18241,-0.43656 -0.60871,-1.42118 -0.94732,-2.18804 l -0.61566,-1.3943 0.24612,-0.22187 c 0.13536,-0.12203 2.60416,-1.93537 5.48621,-4.02966 2.88205,-2.09428 5.57788,-4.04592 5.99073,-4.33696 0.41284,-0.29104 2.85741,-2.07698 5.43236,-3.96875 2.57495,-1.89177 5.32886,-3.91583 6.11979,-4.49792 0.79094,-0.58208 2.3361,-2.18942 3.43369,-3.57187 1.09759,-1.38245 2.19629,-2.75206 2.44156,-3.04359 0.24527,-0.29152 0.8269,-1.01547 1.29252,-1.60876 0.46563,-0.5933 0.91416,-1.42634 0.99674,-1.85121 0.0826,-0.42486 0.37768,-2.1417 0.65578,-3.81519 0.2781,-1.67349 0.57193,-3.63802 0.65296,-4.36563 0.081,-0.7276 0.2132,-2.03729 0.29372,-2.91041 0.0805,-0.87313 0.25992,-2.59953 0.39866,-3.83646 0.13875,-1.23693 0.25226,-5.34458 0.25226,-9.12813 0,-3.78354 -0.12306,-7.95072 -0.27347,-9.26041 -0.15041,-1.30969 -0.32799,-3.09563 -0.39463,-3.96875 -0.0666,-0.873132 -0.1954,-2.058942 -0.28615,-2.635152 -0.0966,-0.6132 -0.61117,-1.65554 -1.24092,-2.51354 -0.59176,-0.80624 -2.44034,-3.31136 -4.10795,-5.56694 -1.66761,-2.25558 -3.46792,-4.696358 -4.00068,-5.423968 -0.53277,-0.7276 -1.30001,-2.27541 -1.70499,-3.43958 -0.40497,-1.16417 -1.20908,-3.48588 -1.78691,-5.159374 l -1.05059,-3.042708 -2.61323,-4.365625 c -1.43728,-2.401094 -2.68368,-4.55093 -2.76979,-4.777414 l -0.15656,-0.411789 1.04996,-0.843772 c 0.57748,-0.464074 1.93163,-1.647988 3.00923,-2.630919 1.0776,-0.982931 2.96049,-2.692289 4.18421,-3.798573 1.22371,-1.106283 3.2072,-2.873318 4.40775,-3.926744 1.20055,-1.053426 2.18281,-2.002399 2.18281,-2.10883 0,-0.106431 -0.98385,-1.137365 -2.18634,-2.290964 -1.20249,-1.153599 -4.32322,-4.061985 -6.93496,-6.463078 -2.61173,-2.401094 -5.97206,-5.527354 -7.4674,-6.947245 l -2.71879,-2.581619 -3.24469,2.300289 c -1.78458,1.265159 -3.98042,2.843607 -4.87965,3.507661 -0.89923,0.664055 -3.18716,2.321305 -5.08429,3.682779 -1.89713,1.361474 -3.52057,2.699862 -3.60764,2.974195 -0.0871,0.274333 -0.0868,0.614456 5.5e-4,0.755829 0.0874,0.141373 0.0336,1.243766 -0.1194,2.449764 -0.15304,1.205997 -0.40161,3.919128 -0.55237,6.02918 -0.15076,2.110052 -0.32635,4.729427 -0.39019,5.820833 -0.0638,1.091407 -0.1778,2.460625 -0.25325,3.042709 -0.0754,0.582083 -0.25752,2.784739 -0.4046,4.894791 -0.14708,2.110052 -0.3731,5.265209 -0.50228,7.011459 l -0.23488,3.174995 2.29061,2.38488 c 1.25984,1.31169 6.51673,6.72903 11.68198,12.038558 5.16526,5.30951 10.83461,11.141942 12.59857,12.960952 1.76396,1.81901 4.64818,4.79327 6.40938,6.60946 1.7612,1.81619 3.11653,3.37118 3.01185,3.45552 -0.10468,0.0844 -1.20236,0.61332 -2.43929,1.17549 -1.23693,0.56217 -3.73724,1.72506 -5.55625,2.58421 -1.81901,0.85915 -5.45042,2.6437 -8.06979,3.96567 -2.61938,1.32197 -5.17922,2.63602 -5.68854,2.9201 -0.50933,0.28408 -1.46183,0.82448 -2.11667,1.20088 -0.65484,0.3764 -2.14313,1.30247 -3.30729,2.05793 -1.16417,0.75546 -2.83104,1.99572 -3.70417,2.75613 -0.87312,0.76041 -1.97985,1.79131 -2.45939,2.29088 -0.47954,0.49957 -1.10418,1.28927 -1.38808,1.75488 -0.28389,0.4656 -0.51596,1.20375 -0.51569,1.64031 2.7e-4,0.43656 0.11004,1.21047 0.24393,1.71979 0.1339,0.50932 0.3061,1.40229 0.38267,1.98437 0.0766,0.58209 0.26569,1.95131 0.42027,3.04271 0.15457,1.09141 0.45354,3.05594 0.66437,4.36563 0.21083,1.30969 0.64231,3.92906 0.95885,5.82083 0.31653,1.89177 0.60675,3.73724 0.64493,4.10104 0.0382,0.36381 0.2048,1.63481 0.37025,2.82447 l 0.30082,2.163 -0.29595,2.33491 c -0.16277,1.28421 -0.33044,2.6921 -0.37259,3.12866 -0.0422,0.43657 -0.16088,1.33124 -0.26382,1.98816 l -0.18716,1.19441 0.4348,2.24518 c 0.23914,1.23484 0.67472,3.4358 0.96797,4.891 0.29325,1.45521 0.7134,3.01874 0.93366,3.47451 0.22026,0.45576 0.83578,1.36845 1.36782,2.02818 0.53204,0.65974 1.53086,1.91727 2.2196,2.79452 l 1.25227,1.59498 -4.03039,2.74057 c -2.21671,1.50732 -5.99492,4.03839 -8.39601,5.62461 -2.4011,1.58623 -4.42516,2.94926 -4.49792,3.02896 -0.0728,0.0797 -2.05648,1.42485 -4.40826,2.9892 l -4.27597,2.84427 h -7.69642 -7.69643 v 1.98019 1.98019 l 7.33144,0.0703 7.33145,0.0703 0.19826,0.79375 c 0.10905,0.43656 0.50385,1.92484 0.87734,3.30729 0.37349,1.38245 0.73185,2.66237 0.79636,2.84427 0.0645,0.1819 0.21032,0.33007 0.32403,0.32926 0.11371,-8.2e-4 0.99179,-0.62589 1.9513,-1.38907 z m -54.15265,-1.13517 c 0.0838,-0.33398 0.0767,-0.80442 -0.0157,-1.04541 -0.0925,-0.24099 -0.45735,-0.54813 -0.81083,-0.68252 l -0.6427,-0.24435 -0.49393,0.26434 c -0.27165,0.14538 -0.56954,0.50259 -0.66196,0.79379 -0.0924,0.29119 -0.0979,0.75054 -0.0121,1.02078 0.0858,0.27023 0.42121,0.61049 0.74543,0.75614 l 0.58949,0.26482 0.57497,-0.26018 c 0.31622,-0.1431 0.64354,-0.53343 0.72736,-0.86741 z m 47.39375,0.10431 c 0.0854,-0.26896 0.0796,-0.72727 -0.0128,-1.01846 -0.0924,-0.2912 -0.39031,-0.64841 -0.66197,-0.79379 l -0.49392,-0.26434 -0.67878,0.25807 -0.67878,0.25807 v 1.02445 1.02445 l 0.59531,0.26742 0.59531,0.26741 0.59023,-0.26713 c 0.32462,-0.14693 0.66007,-0.48719 0.74543,-0.75615 z m -12.58045,-11.33955 v -2.11928 l -12.36927,0.0688 -12.369267,0.0688 -0.0798,1.69193 c -0.0439,0.93055 -0.0178,1.85329 0.0578,2.05052 l 0.1376,0.35859 h 12.311427 12.31143 z m -38.35326,-0.7972 c 0.27814,-0.14885 0.63597,-0.51402 0.79516,-0.81149 l 0.28946,-0.54085 -0.42178,-0.64371 -0.42178,-0.64372 h -0.63646 c -0.35005,0 -0.82356,0.1871 -1.05224,0.41578 -0.22867,0.22867 -0.41577,0.64539 -0.41577,0.92604 0,0.28065 0.23813,0.74839 0.52917,1.03943 0.29104,0.29104 0.59652,0.52917 0.67885,0.52917 0.0823,0 0.37725,-0.12179 0.65539,-0.27065 z m 53.11106,-0.14123 c 0.32661,-0.22877 0.58803,-0.69087 0.58803,-1.03943 0,-0.34516 -0.1871,-0.81466 -0.41577,-1.04333 -0.22868,-0.22868 -0.70218,-0.41578 -1.05223,-0.41578 h -0.63646 l -0.42178,0.64372 -0.42178,0.64371 0.28663,0.53558 c 0.15765,0.29457 0.49353,0.65612 0.74641,0.80345 0.25288,0.14733 0.52258,0.27149 0.59934,0.27591 0.0768,0.004 0.40418,-0.1773 0.72761,-0.40383 z M 72.72637,190.94762 c 1.35304,-0.93587 3.49957,-2.43165 4.77008,-3.32395 l 2.31002,-1.62237 1.96195,-4.01823 c 1.07908,-2.21003 2.74291,-5.68511 3.6974,-7.7224 0.9545,-2.03729 2.21704,-4.65442 2.80564,-5.81584 0.5886,-1.16142 1.07018,-2.26275 1.07018,-2.4474 0,-0.18464 0.11177,-0.33572 0.24837,-0.33572 0.13661,0 0.3215,0.56555 0.41087,1.25677 0.0894,0.69122 0.27703,2.03068 0.417,2.97656 0.139983,0.94589 0.485223,3.38667 0.767213,5.42396 0.28199,2.03729 0.71741,5.22532 0.9676,7.0845 0.26335,1.95689 0.56674,3.34304 0.7205,3.29179 0.14609,-0.0487 0.84291,-0.915 1.5485,-1.92512 0.7056,-1.01012 1.70828,-2.46166 2.2282,-3.22565 0.51991,-0.76398 1.02301,-1.38783 1.118,-1.38633 0.095,0.001 1.07922,1.51954 2.18718,3.37343 l 2.014477,3.37071 h 0.87765 0.87765 l 2.00267,-3.36764 c 1.10146,-1.8522 2.08038,-3.37025 2.17537,-3.37343 0.095,-0.003 0.5981,0.61928 1.11801,1.38326 0.51991,0.76399 1.5226,2.21553 2.22819,3.22565 0.70559,1.01012 1.4109,1.87925 1.56734,1.9314 0.16626,0.0554 0.35491,-0.48779 0.45406,-1.30742 0.0933,-0.77123 0.2859,-2.23567 0.428,-3.25432 0.14211,-1.01864 0.3734,-2.68552 0.51399,-3.70416 0.14058,-1.01865 0.37799,-2.68552 0.52757,-3.70417 0.14958,-1.01864 0.33288,-2.32833 0.40732,-2.91042 0.0744,-0.58208 0.24807,-1.89177 0.38582,-2.91041 0.13775,-1.01865 0.25412,-1.94138 0.25862,-2.05052 0.004,-0.10914 0.0982,-0.19844 0.20816,-0.19844 0.11,0 0.36815,0.38695 0.57367,0.8599 0.20553,0.47294 1.0818,2.34817 1.94727,4.16718 0.86548,1.81901 2.28868,4.79558 3.16268,6.61459 0.87399,1.81901 2.16856,4.51731 2.87682,5.99622 l 1.28776,2.68894 1.52434,1.06351 c 0.83839,0.58493 1.88153,1.31753 2.31809,1.62801 0.43656,0.31047 1.90395,1.34151 3.26086,2.2912 1.35691,0.94969 2.53505,1.65878 2.61809,1.57574 0.083,-0.083 -0.23936,-2.44549 -0.71642,-5.2499 -0.47707,-2.80441 -0.91104,-5.45612 -0.96439,-5.89268 -0.0534,-0.43656 -0.28778,-1.86531 -0.52095,-3.175 -0.23317,-1.30969 -0.47109,-2.73844 -0.5287,-3.175 -0.0576,-0.43656 -0.28139,-1.74625 -0.49726,-2.91042 -0.21588,-1.16417 -0.45778,-2.6398 -0.53757,-3.27918 -0.0798,-0.63938 -0.19123,-1.2372 -0.24765,-1.3285 -0.0564,-0.0913 -0.17791,-0.69926 -0.26996,-1.35103 -0.0921,-0.65177 -0.22464,-1.3798 -0.29464,-1.61784 -0.07,-0.23804 -0.18498,-0.89289 -0.25551,-1.45521 -0.0705,-0.56232 -0.23717,-1.37959 -0.3703,-1.81616 -0.13312,-0.43656 -0.49864,-2.28017 -0.81226,-4.09691 -0.31362,-1.81673 -0.61435,-3.37457 -0.6683,-3.46184 -0.0539,-0.0873 -0.16969,-0.56539 -0.25723,-1.06247 -0.0875,-0.49708 -0.5116,-2.39206 -0.94236,-4.21107 -0.43076,-1.81901 -0.97009,-4.02166 -1.19852,-4.89479 -0.22842,-0.87312 -0.50436,-1.94469 -0.61319,-2.38125 l -0.19788,-0.79375 -1.52141,3.175 c -0.83677,1.74625 -2.2975,4.90141 -3.24606,7.01146 -0.94856,2.11005 -1.81592,3.95552 -1.92746,4.10104 -0.11154,0.14552 -0.77362,1.54451 -1.47129,3.10886 -0.69766,1.56434 -1.34827,2.84427 -1.44579,2.84427 -0.0975,0 -0.45228,-1.93477 -0.78836,-4.29948 -0.33608,-2.36472 -0.70443,-4.95433 -0.81856,-5.75469 -0.11413,-0.80036 -0.34029,-2.46724 -0.50259,-3.70417 -0.16229,-1.23692 -0.33925,-2.50474 -0.39324,-2.81736 -0.054,-0.31262 -0.1815,-1.23535 -0.28335,-2.05052 -0.10185,-0.81516 -0.26076,-1.47887 -0.35313,-1.4749 -0.0924,0.004 -1.23507,1.44098 -2.53933,3.19336 l -2.37137,3.18614 -0.27446,-0.3964 c -0.15095,-0.21801 -1.15378,-1.77409 -2.2285,-3.45794 l -1.95404,-3.06154 h -0.72373 -0.72374 l -2.174107,3.42232 -2.17411,3.42232 -0.71102,-0.84263 c -0.39106,-0.46345 -1.48193,-1.882 -2.42416,-3.15233 -0.94222,-1.27033 -1.80243,-2.31212 -1.91157,-2.3151 -0.10914,-0.003 -0.20233,0.20294 -0.2071,0.4576 -0.005,0.25467 -0.11577,1.23693 -0.2467,2.18282 -0.13093,0.94588 -0.3732,2.67229 -0.53839,3.83645 -0.16519,1.16417 -0.40044,2.83105 -0.52279,3.70417 -0.12234,0.87313 -0.40454,2.83766 -0.6271,4.36563 -0.222573,1.52797 -0.482783,3.4032 -0.578263,4.16718 -0.0955,0.76399 -0.25398,1.38907 -0.35223,1.38907 -0.0983,0 -0.70546,-1.16086 -1.34935,-2.57969 -0.64389,-1.41883 -1.98108,-4.28265 -2.97153,-6.36405 -0.99045,-2.0814 -1.80082,-3.8256 -1.80082,-3.876 0,-0.0504 -0.71438,-1.59414 -1.5875,-3.43053 -0.87313,-1.83639 -1.5875,-3.45571 -1.5875,-3.59848 0,-0.14277 -0.10555,-0.25959 -0.23456,-0.25959 -0.129,0 -0.29633,0.32742 -0.37185,0.72761 -0.0755,0.40018 -0.50932,2.21588 -0.96402,4.03489 -0.45471,1.81901 -1.06193,4.37886 -1.34939,5.68854 -0.28747,1.30969 -0.69214,3.21469 -0.89929,4.23334 -0.20714,1.01864 -0.45362,2.38786 -0.54772,3.04271 -0.0941,0.65484 -0.33283,1.84547 -0.5305,2.64583 -0.19767,0.80036 -0.49533,2.22911 -0.66147,3.175 -0.16614,0.94589 -0.41094,2.25557 -0.54402,2.91042 -0.13307,0.65484 -0.29718,1.54781 -0.36469,1.98437 -0.0675,0.43656 -0.25299,1.56766 -0.41218,2.51354 -0.15919,0.94589 -0.40425,2.47767 -0.54458,3.40396 -0.14033,0.92629 -0.29922,1.75972 -0.35309,1.85208 -0.0539,0.0924 -0.17405,0.80853 -0.26706,1.59151 -0.093,0.78297 -0.21711,1.50125 -0.27577,1.59617 -0.0587,0.0949 -0.17064,0.70447 -0.24882,1.35454 -0.0782,0.65007 -0.43471,2.96789 -0.79228,5.1507 -0.35757,2.18281 -0.72069,4.47477 -0.80692,5.09323 -0.0862,0.61846 -0.10156,1.12448 -0.034,1.12448 0.0675,0 1.22978,-0.76571 2.58281,-1.70159 z m -15.91109,-2.27647 0.51178,-0.27389 v -0.75205 c 0,-0.41362 -0.1714,-0.89428 -0.38088,-1.06814 -0.20948,-0.17385 -0.7133,-0.27773 -1.11961,-0.23083 l -0.73873,0.0853 -0.25157,0.71959 -0.25156,0.7196 0.48614,0.53717 c 0.26738,0.29545 0.65411,0.53718 0.8594,0.53718 0.20529,0 0.60356,-0.12325 0.88503,-0.27389 z m 93.80597,-0.18913 c 0.19331,-0.25466 0.35527,-0.7071 0.3599,-1.00541 0.005,-0.29832 -0.13447,-0.68528 -0.30909,-0.8599 -0.17463,-0.17463 -0.62706,-0.3175 -1.00542,-0.3175 -0.37835,0 -0.83079,0.14287 -1.00541,0.3175 -0.17463,0.17462 -0.3175,0.64496 -0.3175,1.04519 0,0.4139 0.19965,0.84397 0.46302,0.99737 0.25466,0.14832 0.68802,0.2733 0.96302,0.27773 0.275,0.004 0.65816,-0.20032 0.85148,-0.45498 z M 43.34945,167.86966 c 0.26612,-0.24083 0.48007,-0.68732 0.47544,-0.99219 -0.005,-0.30486 -0.16658,-0.76266 -0.35989,-1.01732 -0.19332,-0.25466 -0.57649,-0.4612 -0.85149,-0.45897 -0.275,0.002 -0.631,0.0915 -0.79111,0.19844 -0.16012,0.10691 -0.42539,0.44955 -0.58949,0.76142 l -0.29837,0.56703 0.54255,0.68974 c 0.2984,0.37935 0.73288,0.68973 0.96552,0.68973 0.23265,0 0.64072,-0.19704 0.90684,-0.43788 z m 120.84425,-0.25185 0.54254,-0.68974 -0.29836,-0.56703 c -0.16411,-0.31187 -0.42938,-0.65451 -0.58949,-0.76142 -0.16012,-0.10692 -0.51612,-0.19621 -0.79112,-0.19844 -0.275,-0.002 -0.65817,0.20431 -0.85148,0.45897 -0.19332,0.25466 -0.35527,0.69177 -0.3599,0.97135 -0.005,0.27958 0.18863,0.72607 0.42947,0.99219 0.24083,0.26612 0.64891,0.48385 0.90684,0.48385 0.25792,0 0.7131,-0.31038 1.0115,-0.68973 z m -56.41413,-30.50046 c 1.137,-0.27419 2.77471,-0.74945 3.63935,-1.05613 0.86464,-0.30669 1.65935,-0.6479 1.76603,-0.75825 0.10668,-0.11035 0.65471,-1.80798 1.21785,-3.77251 l 1.02389,-3.57188 h 1.03672 1.03673 l 0.61904,2.05053 0.61905,2.05052 h 2.61528 2.61528 l -0.12758,-0.99219 c -0.0702,-0.5457 -0.23516,-1.64703 -0.36666,-2.4474 -0.13149,-0.80036 -0.37417,-2.40771 -0.53928,-3.57187 -0.16511,-1.16417 -0.40337,-2.71198 -0.52946,-3.43959 -0.12609,-0.7276 -0.37418,-2.45401 -0.55131,-3.83645 -0.17713,-1.38245 -0.39614,-2.60156 -0.4867,-2.70914 -0.0905,-0.10758 -1.29685,-0.43203 -2.68066,-0.721 -1.38381,-0.28898 -3.4032,-0.65854 -4.48753,-0.82125 -1.08433,-0.16271 -2.50729,-0.34151 -3.16213,-0.39733 -0.65485,-0.0558 -2.75928,-0.2251 -4.67653,-0.37619 l -3.4859,-0.2747 -3.790137,0.29896 c -2.08458,0.16442 -3.96874,0.29895 -4.18702,0.29895 -0.21828,0 -1.46844,0.15613 -2.77812,0.34695 -1.30969,0.19082 -3.274223,0.5348 -4.365633,0.76441 -1.09141,0.2296 -2.33797,0.51388 -2.77015,0.63174 l -0.78577,0.21428 -0.45047,3.15809 c -0.24775,1.73696 -0.5853,4.05107 -0.75009,5.14248 -0.1648,1.0914 -0.35029,2.40109 -0.41221,2.91041 -0.0619,0.50933 -0.23909,1.69995 -0.39372,2.64584 -0.15463,0.94588 -0.33342,2.05135 -0.3973,2.4566 l -0.11616,0.7368 2.67525,-0.0753 2.67526,-0.0754 0.56112,-1.98437 0.56112,-1.98438 h 1.04418 1.04418 l 1.072483,3.66412 1.07249,3.66411 0.92604,0.40768 c 0.50932,0.22422 2.1762,0.74332 3.70417,1.15356 l 2.77812,0.74587 2.959807,0.011 2.9598,0.011 z M 34.6182,113.63008 c 0.26612,-0.24084 0.48386,-0.64905 0.48386,-0.90715 0,-0.25809 -0.1871,-0.65635 -0.41578,-0.88503 -0.22867,-0.22868 -0.76026,-0.41577 -1.18131,-0.41577 h -0.76554 l -0.2739,0.51177 c -0.15064,0.28147 -0.27389,0.68969 -0.27389,0.90714 0,0.21746 0.1871,0.58247 0.41577,0.81115 0.22868,0.22867 0.66579,0.41577 0.97136,0.41577 0.30557,0 0.77331,-0.19705 1.03943,-0.43788 z m 138.44517,0.0221 c 0.22867,-0.22868 0.41577,-0.68112 0.41577,-1.00542 0,-0.3243 -0.14287,-0.73252 -0.3175,-0.90714 -0.17462,-0.17463 -0.64813,-0.3175 -1.05223,-0.3175 h -0.73473 l -0.43341,0.66145 -0.4334,0.66146 0.4334,0.66146 0.43341,0.66146 h 0.63646 c 0.35005,0 0.82355,-0.1871 1.05223,-0.41577 z m -90.18956,-3.95807 c 1.46316,-0.72309 3.01098,-1.4544 3.43958,-1.62515 0.42861,-0.17074 1.73872,-0.60807 2.91135,-0.97183 1.17262,-0.36377 2.658393,-0.7399 3.301703,-0.83585 0.6433,-0.0959 1.23169,-0.21139 1.30753,-0.25653 0.0758,-0.0451 0.69557,-0.15667 1.37718,-0.24783 0.68162,-0.0912 2.11037,-0.27887 3.17501,-0.41711 1.06463,-0.13825 2.909337,-0.25503 4.099357,-0.25952 1.19002,-0.005 3.04352,0.1142 4.11891,0.26378 1.07538,0.14957 2.36392,0.31672 2.86341,0.37144 0.4995,0.0547 1.56302,0.21936 2.36339,0.36585 0.80036,0.1465 2.5863,0.57829 3.96875,0.95953 1.38244,0.38125 2.75166,0.79385 3.0427,0.91689 0.29105,0.12304 1.5412,0.67279 2.77813,1.22166 1.23693,0.54887 2.60615,1.20562 3.04271,1.45944 l 0.79375,0.4615 2.24896,-0.33719 c 1.23692,-0.18545 2.33216,-0.28839 2.43384,-0.22876 0.10169,0.0596 0.93513,-0.008 1.85209,-0.15135 0.91695,-0.14287 2.47817,-0.32159 3.46937,-0.39715 0.9912,-0.0756 2.40918,-0.21792 3.15108,-0.31633 0.74189,-0.0984 1.68708,-0.19978 2.10042,-0.22524 0.41334,-0.0255 1.15098,-0.0671 1.63921,-0.0926 l 0.88767,-0.0463 0.32212,-2.4474 c 0.17716,-1.34606 0.40278,-3.02152 0.50138,-3.72324 l 0.17927,-1.27585 3.25163,-1.33745 c 1.78839,-0.735612 3.19515,-1.393932 3.12613,-1.462952 -0.069,-0.069 -1.59178,0.002 -3.38391,0.15864 -1.79214,0.15627 -5.46108,0.40543 -8.15322,0.55368 -2.69214,0.14825 -7.5737,0.386532 -10.84792,0.529512 -3.27422,0.14297 -10.65609,0.32623 -16.40416,0.40724 -5.74808,0.081 -16.046987,0.009 -22.88646,-0.15912 -6.83948,-0.16853 -13.50698,-0.34124 -14.81667,-0.38382 -1.30969,-0.0426 -4.58391,-0.210142 -7.27604,-0.372372 -2.69214,-0.16224 -6.21146,-0.40987 -7.82071,-0.5503 -1.60926,-0.14042 -3.15112,-0.25532 -3.42636,-0.25532 h -0.50043 l 0.25135,0.23917 c 0.13825,0.13154 1.58156,0.800402 3.20737,1.486362 l 2.95602,1.24719 0.1823,1.32548 c 0.10027,0.72901 0.21851,1.715 0.26275,2.19108 0.0443,0.47608 0.16377,1.53247 0.26561,2.34754 l 0.18515,1.48193 0.82941,0.0377 c 0.45618,0.0207 1.24613,0.07 1.75545,0.10945 0.50933,0.0395 1.52136,0.15113 2.24896,0.24813 0.72761,0.097 1.97776,0.22424 2.77813,0.28275 0.80036,0.0585 1.93146,0.16976 2.51354,0.24723 0.58208,0.0775 1.83224,0.20338 2.77812,0.27981 0.94589,0.0764 2.37464,0.23764 3.175,0.35824 0.80037,0.1206 1.51474,0.20145 1.5875,0.17967 0.0728,-0.0218 1.32943,-0.63121 2.79259,-1.3543 z M 66.1717,81.63758 c 0.22868,-0.22867 0.41577,-0.63689 0.41577,-0.90714 0,-0.27025 -0.18709,-0.67847 -0.41577,-0.90714 -0.22868,-0.22868 -0.70218,-0.41578 -1.05223,-0.41578 h -0.63646 l -0.43341,0.66146 -0.4334,0.66146 0.4334,0.66146 0.43341,0.66146 h 0.63646 c 0.35005,0 0.82355,-0.1871 1.05223,-0.41578 z m 75.33817,-0.0221 c 0.26612,-0.24083 0.48386,-0.61841 0.48386,-0.83906 0,-0.22065 -0.19705,-0.61891 -0.43789,-0.88503 -0.24083,-0.26612 -0.70858,-0.48386 -1.03943,-0.48386 -0.33085,0 -0.78865,0.1871 -1.01733,0.41578 -0.22867,0.22867 -0.41577,0.63689 -0.41577,0.90714 0,0.27025 0.1871,0.67847 0.41577,0.90714 0.22868,0.22868 0.66579,0.41578 0.97136,0.41578 0.30557,0 0.77331,-0.19705 1.03943,-0.43789 z m -31.0218,-1.93277 c 0.181,-1.01282 0.36294,-2.11414 0.40432,-2.44739 0.0414,-0.33325 0.15729,-1.20122 0.25759,-1.928829 0.1003,-0.727604 0.28461,-1.858698 0.40958,-2.513541 0.12496,-0.654844 0.37816,-2.083594 0.56267,-3.175 0.18451,-1.091407 0.34873,-2.103438 0.36494,-2.248959 0.0162,-0.145521 0.124,-0.978958 0.23954,-1.852083 0.11553,-0.873125 0.31268,-2.004219 0.43811,-2.513542 0.12542,-0.509323 0.28638,-1.402291 0.35769,-1.984375 0.0713,-0.582083 0.25725,-1.935389 0.41322,-3.007346 0.15596,-1.071957 0.33261,-2.028361 0.39254,-2.125342 0.0599,-0.09698 0.1781,-0.767737 0.26258,-1.49057 0.0845,-0.722833 0.21994,-1.671429 0.30102,-2.107992 0.0811,-0.436562 0.18819,-1.091406 0.23802,-1.455208 0.0498,-0.363802 0.23121,-1.612094 0.40305,-2.773981 0.17184,-1.161888 0.36022,-2.189832 0.41862,-2.28432 0.0584,-0.09449 0.23454,-1.048854 0.39143,-2.120811 0.15689,-1.071957 0.34324,-2.440492 0.41411,-3.041188 l 0.12886,-1.092176 -1.79976,-0.210847 c -0.98987,-0.115967 -1.88126,-0.192635 -1.98087,-0.170374 -0.0996,0.02226 -0.81398,-0.07382 -1.5875,-0.213507 -0.77352,-0.139689 -1.88265,-0.311692 -2.46473,-0.382228 -0.58208,-0.07054 -2.22173,-0.257556 -3.64367,-0.4156 l -2.58534,-0.287352 -2.57403,0.294805 c -1.415717,0.162143 -3.158027,0.351363 -3.871797,0.420489 -0.71376,0.06913 -1.37278,0.172052 -1.46447,0.228724 -0.0917,0.05667 -1.40854,0.239687 -2.92632,0.406699 -1.51777,0.167012 -2.834003,0.349647 -2.924943,0.405856 -0.0909,0.05621 -0.0669,0.822295 0.0535,1.702416 0.12036,0.88012 0.28331,1.986198 0.36212,2.457952 0.0788,0.471754 0.26466,1.57211 0.41303,2.445235 0.14837,0.873125 0.38414,2.242343 0.52394,3.042708 0.139803,0.800365 0.495663,3.003021 0.790803,4.894792 0.29514,1.89177 0.71682,4.54388 0.93708,5.893577 0.22026,1.349697 0.45396,2.808212 0.51935,3.241146 0.0654,0.432933 0.17463,1.159123 0.24277,1.613755 0.0681,0.454632 0.31059,1.913148 0.5388,3.241146 0.22821,1.327998 0.47217,2.77173 0.54214,3.208292 0.07,0.436563 0.18456,1.091407 0.25466,1.455209 0.0701,0.363802 0.18062,1.078177 0.24559,1.5875 0.065,0.509323 0.25154,1.75948 0.4146,2.77812 0.16307,1.01865 0.36331,2.41763 0.44499,3.10886 l 0.1485,1.25677 h 7.332287 7.3323 z M 63.0283,46.220067 63.45008,45.576351 63.15906,45.032566 c -0.16007,-0.299082 -0.57416,-0.614846 -0.9202,-0.701698 -0.34605,-0.08685 -0.8784,-0.02454 -1.18299,0.138476 l -0.55381,0.29639 v 0.731525 c 0,0.402338 0.14287,0.874399 0.3175,1.049024 0.17462,0.174625 0.64813,0.3175 1.05223,0.3175 h 0.73474 z m 82.02084,0 0.42178,-0.643716 -0.29103,-0.543785 c -0.16006,-0.299082 -0.57415,-0.614846 -0.9202,-0.701698 -0.34605,-0.08685 -0.86352,-0.0325 -1.14994,0.120788 -0.28642,0.153287 -0.582,0.512896 -0.65685,0.799132 -0.0748,0.286236 0.0361,0.766256 0.24653,1.066712 l 0.38264,0.546283 h 0.77264 0.77265 z M 86.37831,43.371283 c 0.17462,-0.174625 0.3175,-0.64813 0.3175,-1.052234 v -0.734734 l -0.66146,-0.433404 -0.66146,-0.433404 -0.66146,0.433404 c -0.3638,0.238372 -0.66146,0.676612 -0.66146,0.973865 0,0.297254 0.12326,0.770759 0.2739,1.052234 l 0.27389,0.511773 h 0.73152 c 0.40234,0 0.8744,-0.142875 1.04903,-0.3175 z m 34.925,0 c 0.17462,-0.174625 0.3175,-0.644124 0.3175,-1.04333 v -0.725831 l -0.58804,-0.411878 c -0.32342,-0.226533 -0.68061,-0.411878 -0.79375,-0.411878 -0.11314,0 -0.44384,0.238125 -0.73488,0.529167 -0.29104,0.291042 -0.52916,0.820907 -0.52916,1.177478 0,0.356571 0.20836,0.769669 0.46302,0.917996 0.25466,0.148326 0.7071,0.273305 1.00541,0.27773 0.29832,0.0044 0.68527,-0.134829 0.8599,-0.309454 z"/></g></svg>